<?xml version="1.0" standalone="no"?>
<!DOCTYPE svg PUBLIC "-//W3C//DTD SVG 20010904//EN"
 "http://www.w3.org/TR/2001/REC-SVG-20010904/DTD/svg10.dtd">
<svg version="1.0" xmlns="http://www.w3.org/2000/svg"
 width="512.000000pt" height="512.000000pt" viewBox="0 0 512.000000 512.000000"
 preserveAspectRatio="xMidYMid meet">

<g transform="translate(0.000000,512.000000) scale(0.100000,-0.100000)"
fill="#000000" stroke="none">
<path d="M2171 4705 c-230 -50 -373 -219 -317 -376 l12 -36 -115 -18 c-130
-20 -387 -82 -472 -114 -80 -30 -103 -88 -54 -136 32 -33 54 -32 188 9 932
282 2198 64 2523 -435 24 -37 51 -69 60 -73 53 -20 114 18 114 72 0 73 -159
254 -313 356 -221 147 -570 270 -913 322 l-111 16 13 37 c57 158 -87 326 -322
376 -85 18 -208 18 -293 0z m261 -156 c111 -23 208 -92 208 -146 0 -11 -10
-35 -22 -53 l-23 -33 -275 0 -275 0 -22 33 c-29 42 -29 65 1 104 62 82 256
127 408 95z"/>
<path d="M555 4455 c-14 -13 -25 -35 -25 -48 0 -24 -16 -50 -74 -121 -60 -75
-72 -167 -32 -252 13 -28 29 -55 36 -59 23 -14 70 -88 70 -111 0 -12 -21 -46
-46 -76 -60 -69 -75 -99 -81 -163 -5 -48 -3 -56 20 -79 51 -50 137 -17 137 53
0 21 14 46 50 88 59 68 86 142 76 210 -7 55 -24 88 -81 154 -58 68 -58 92 -1
162 54 67 74 103 82 155 14 90 -71 148 -131 87z"/>
<path d="M1035 4455 c-14 -13 -25 -35 -25 -48 0 -24 -16 -50 -74 -121 -60 -75
-72 -167 -32 -252 13 -28 29 -55 36 -59 23 -14 70 -88 70 -111 0 -12 -21 -46
-46 -76 -60 -69 -75 -99 -81 -163 -5 -48 -3 -56 20 -79 51 -50 137 -17 137 53
0 21 14 46 50 88 59 68 86 142 76 210 -7 55 -24 88 -81 154 -58 68 -58 92 -1
162 54 67 74 103 82 155 14 90 -71 148 -131 87z"/>
<path d="M540 3423 c-131 -46 -220 -168 -220 -303 0 -94 57 -208 126 -253 l34
-22 0 -750 c0 -826 0 -820 63 -939 40 -78 135 -173 213 -213 121 -64 97 -63
1092 -63 l903 0 24 25 c30 29 32 74 6 106 l-19 24 -924 5 -923 5 -61 28 c-77
36 -145 104 -181 182 l-28 60 -3 743 -2 742 1680 0 1680 0 0 -55 c0 -46 4 -60
25 -80 32 -33 78 -33 110 0 22 21 25 33 25 102 0 77 1 79 31 97 33 20 82 82
106 136 11 23 16 65 17 120 0 70 -4 94 -24 135 -31 63 -91 124 -155 155 l-50
25 -1750 2 c-1572 2 -1755 1 -1795 -14z m3546 -169 c53 -39 69 -71 69 -134 0
-63 -16 -95 -69 -134 -27 -21 -28 -21 -1744 -24 -1185 -2 -1728 0 -1754 8
-101 29 -140 168 -71 251 53 62 -70 59 1815 56 1727 -2 1727 -2 1754 -23z"/>
<path d="M3686 2539 c-20 -16 -26 -29 -26 -59 0 -54 34 -80 106 -80 l54 0 0
-40 c0 -38 -1 -39 -37 -45 -113 -17 -254 -58 -337 -99 -300 -146 -510 -418
-572 -744 -18 -95 -18 -289 0 -384 76 -395 370 -710 762 -815 88 -23 117 -26
259 -26 141 0 172 3 257 26 388 104 679 407 759 792 26 121 26 309 0 430 -80
386 -376 694 -758 791 -52 13 -106 24 -118 24 -44 0 -55 10 -55 51 l0 39 49 0
c66 0 101 27 101 80 0 30 -6 43 -26 59 -25 20 -40 21 -209 21 -169 0 -184 -1
-209 -21z m447 -413 c163 -48 284 -123 404 -249 314 -331 314 -863 0 -1194
-119 -125 -239 -199 -404 -250 -79 -24 -104 -26 -238 -26 -134 0 -159 2 -238
26 -165 51 -285 125 -404 250 -88 93 -150 196 -194 325 -33 96 -34 100 -34
272 0 172 1 176 34 272 95 275 310 486 578 568 111 33 159 39 288 35 92 -3
141 -10 208 -29z"/>
<path d="M3846 2059 c-37 -29 -37 -89 0 -118 15 -12 37 -21 49 -21 12 0 34 9
49 21 37 29 37 89 0 118 -15 12 -37 21 -49 21 -12 0 -34 -9 -49 -21z"/>
<path d="M3336 1849 c-56 -44 -20 -139 54 -139 66 0 97 92 46 137 -34 28 -65
29 -100 2z"/>
<path d="M4354 1847 c-35 -31 -37 -77 -4 -112 48 -51 130 -16 130 55 0 70 -72
103 -126 57z"/>
<path d="M3126 1339 c-37 -29 -37 -89 0 -118 15 -12 37 -21 49 -21 12 0 34 9
49 21 37 29 37 89 0 118 -15 12 -37 21 -49 21 -12 0 -34 -9 -49 -21z"/>
<path d="M3846 1339 c-20 -15 -26 -29 -26 -58 0 -34 10 -47 143 -179 155 -153
170 -161 221 -121 20 15 26 29 26 58 0 34 -10 47 -143 179 -155 153 -170 161
-221 121z"/>
<path d="M4566 1339 c-37 -29 -37 -89 0 -118 15 -12 37 -21 49 -21 12 0 34 9
49 21 37 29 37 89 0 118 -15 12 -37 21 -49 21 -12 0 -34 -9 -49 -21z"/>
<path d="M3336 829 c-37 -29 -37 -89 0 -118 35 -27 66 -26 100 2 35 31 37 77
4 112 -29 31 -68 32 -104 4z"/>
<path d="M4350 825 c-33 -35 -31 -81 4 -112 34 -28 65 -29 100 -2 20 16 26 29
26 59 0 71 -82 106 -130 55z"/>
<path d="M3846 619 c-37 -29 -37 -89 0 -118 15 -12 37 -21 49 -21 12 0 34 9
49 21 37 29 37 89 0 118 -15 12 -37 21 -49 21 -12 0 -34 -9 -49 -21z"/>
<path d="M2973 2165 c-95 -98 -173 -210 -173 -247 0 -54 61 -92 115 -72 9 4
34 33 56 65 22 32 73 95 114 139 60 63 75 86 75 110 0 42 -39 80 -82 80 -28 0
-44 -12 -105 -75z"/>
</g>
</svg>
