<?xml version="1.0" standalone="no"?>
<!DOCTYPE svg PUBLIC "-//W3C//DTD SVG 20010904//EN"
 "http://www.w3.org/TR/2001/REC-SVG-20010904/DTD/svg10.dtd">
<svg version="1.0" xmlns="http://www.w3.org/2000/svg"
 width="128.000000pt" height="128.000000pt" viewBox="0 0 128.000000 128.000000"
 preserveAspectRatio="xMidYMid meet">

<g transform="translate(0.000000,128.000000) scale(0.100000,-0.100000)"
fill="#000000" stroke="none">
<path d="M707 1262 c-25 -27 -23 -123 2 -146 19 -17 19 -18 -4 -69 -12 -29
-30 -77 -40 -108 -18 -56 -18 -56 -46 -46 -23 9 -32 8 -48 -7 -19 -17 -22 -17
-78 10 -47 23 -71 29 -123 28 -131 -1 -224 -84 -254 -225 -5 -21 -13 -28 -41
-33 -59 -11 -75 -36 -75 -112 0 -77 9 -98 50 -112 27 -10 30 -15 30 -54 0 -58
77 -315 107 -355 l24 -33 428 0 428 0 21 23 c28 29 112 303 112 364 0 40 3 45
30 55 17 5 35 18 40 28 13 24 13 136 0 160 -11 21 -60 40 -104 40 l-32 0 -12
85 c-12 78 -66 255 -98 316 -12 24 -11 28 6 44 15 14 20 31 20 75 0 87 -7 90
-182 90 -128 0 -147 -2 -161 -18z m293 -72 l0 -40 -130 0 -130 0 0 40 0 40
130 0 130 0 0 -40z m-15 -162 c40 -85 79 -218 89 -300 l7 -58 -32 0 c-24 0
-81 27 -194 91 -88 50 -161 92 -162 94 -6 4 45 143 71 193 l26 52 81 0 80 0
34 -72z m-518 -175 c18 -8 33 -19 33 -23 0 -4 -36 -42 -80 -84 l-80 -76 -89 0
-89 0 7 33 c32 140 171 211 298 150z m289 -94 c79 -45 144 -83 144 -85 0 -2
-109 -4 -242 -4 l-243 1 90 84 c50 47 94 85 98 85 5 0 73 -36 153 -81z m469
-209 l0 -55 -585 0 -585 0 -3 44 c-6 77 -57 71 590 69 l583 -3 0 -55z m-915
-280 l5 -165 50 -3 c72 -5 75 2 75 186 0 153 0 153 23 150 22 -3 22 -6 27
-168 l5 -165 55 0 55 0 5 165 5 165 25 0 25 0 5 -165 5 -165 55 0 55 0 5 165
c5 162 5 165 28 168 22 3 22 3 22 -150 0 -184 3 -191 75 -186 l50 3 5 165 5
165 87 3 88 3 0 -42 c0 -39 -69 -290 -91 -331 -9 -17 -38 -18 -419 -18 -381 0
-410 1 -419 18 -22 41 -91 292 -91 331 l0 42 88 -3 87 -3 5 -165z m70 25 c0
-90 -4 -145 -10 -145 -6 0 -10 55 -10 145 0 90 4 145 10 145 6 0 10 -55 10
-145z m180 0 c0 -90 -4 -145 -10 -145 -6 0 -10 55 -10 145 0 90 4 145 10 145
6 0 10 -55 10 -145z m180 0 c0 -90 -4 -145 -10 -145 -6 0 -10 55 -10 145 0 90
4 145 10 145 6 0 10 -55 10 -145z m180 0 c0 -90 -4 -145 -10 -145 -6 0 -10 55
-10 145 0 90 4 145 10 145 6 0 10 -55 10 -145z"/>
</g>
</svg>
