<?xml version="1.0" standalone="no"?>
<!DOCTYPE svg PUBLIC "-//W3C//DTD SVG 20010904//EN"
 "http://www.w3.org/TR/2001/REC-SVG-20010904/DTD/svg10.dtd">
<svg version="1.0" xmlns="http://www.w3.org/2000/svg"
 width="512.000000pt" height="512.000000pt" viewBox="0 0 512.000000 512.000000"
 preserveAspectRatio="xMidYMid meet">

<g transform="translate(0.000000,512.000000) scale(0.100000,-0.100000)"
fill="#000000" stroke="none">
<path d="M1919 3734 c-290 -52 -508 -218 -640 -488 l-39 -80 0 190 c0 106 -5
207 -11 229 -15 55 -83 119 -142 133 -29 8 -151 12 -340 12 -330 0 -370 -6
-424 -62 -59 -61 -63 -83 -63 -340 0 -216 1 -235 21 -276 25 -50 85 -99 135
-108 l34 -6 0 -675 c0 -481 3 -687 12 -721 8 -31 25 -59 53 -88 60 -60 101
-67 365 -62 233 3 247 6 302 65 52 55 58 85 58 305 l1 203 23 -55 c119 -283
350 -467 663 -526 129 -24 344 -15 472 20 266 74 476 262 581 522 l22 53 59
-117 c122 -243 289 -383 544 -458 121 -35 346 -45 478 -20 411 78 669 364 752
836 22 124 30 406 16 542 -40 396 -181 670 -431 837 -149 100 -331 151 -535
151 -394 0 -701 -194 -850 -535 l-33 -77 -40 85 c-134 286 -358 460 -659 512
-105 18 -282 18 -384 -1z m429 -213 c278 -81 449 -297 517 -653 23 -120 30
-359 15 -503 -16 -164 -51 -290 -112 -415 -90 -182 -235 -304 -423 -355 -89
-25 -292 -31 -390 -12 -366 70 -564 342 -605 832 -30 365 49 712 205 894 104
122 216 188 382 225 98 22 313 15 411 -13z m1772 -1 c351 -101 540 -436 540
-956 0 -254 -37 -441 -121 -613 -89 -183 -235 -304 -429 -358 -49 -13 -102
-18 -220 -18 -132 0 -167 3 -235 23 -123 36 -190 76 -285 172 -71 70 -94 101
-132 180 -87 175 -118 339 -118 617 0 362 72 599 237 773 99 105 198 161 349
194 100 23 313 15 414 -14z m-3082 -957 l-3 -968 -190 0 -190 0 -3 773 -2 772
-95 0 -95 0 0 195 0 195 290 0 290 0 -2 -967z"/>
<path d="M2003 3176 c-130 -42 -218 -156 -260 -336 -26 -109 -26 -452 0 -563
39 -166 126 -282 243 -326 85 -33 216 -27 296 12 101 50 169 152 210 315 19
75 22 114 22 282 0 168 -3 207 -22 282 -40 163 -113 266 -221 317 -67 31 -199
39 -268 17z m222 -229 c65 -65 94 -184 95 -388 0 -202 -46 -368 -114 -410 -45
-28 -133 -26 -176 4 -73 49 -110 185 -110 407 0 224 36 358 110 408 25 17 47
22 93 22 57 0 62 -2 102 -43z"/>
<path d="M3773 3176 c-130 -42 -218 -156 -260 -336 -26 -109 -26 -452 0 -563
39 -166 126 -283 245 -327 83 -32 215 -25 295 13 99 49 165 145 209 305 19 68
22 104 22 292 0 188 -3 225 -22 291 -43 156 -110 252 -214 305 -44 23 -68 28
-143 31 -57 2 -105 -2 -132 -11z m217 -222 c69 -62 100 -189 100 -401 -1 -208
-44 -361 -114 -404 -42 -26 -130 -26 -173 1 -37 22 -74 89 -94 170 -19 74 -19
392 -1 476 31 138 84 194 183 194 53 0 63 -3 99 -36z"/>
</g>
</svg>
