<?xml version="1.0" standalone="no"?>
<!DOCTYPE svg PUBLIC "-//W3C//DTD SVG 20010904//EN"
 "http://www.w3.org/TR/2001/REC-SVG-20010904/DTD/svg10.dtd">
<svg version="1.0" xmlns="http://www.w3.org/2000/svg"
 width="512.000000pt" height="512.000000pt" viewBox="0 0 512.000000 512.000000"
 preserveAspectRatio="xMidYMid meet">

<g transform="translate(0.000000,512.000000) scale(0.100000,-0.100000)"
fill="#000000" stroke="none">
<path d="M2433 4169 c-30 -11 -77 -43 -107 -70 -131 -120 -153 -298 -54 -450
21 -34 38 -62 36 -63 -2 -2 -41 -8 -88 -15 -104 -15 -255 -52 -375 -92 -126
-42 -370 -164 -495 -247 -513 -341 -860 -900 -941 -1515 -10 -80 -9 -90 7
-108 23 -26 60 -24 78 3 8 13 17 50 21 83 27 240 122 529 246 750 281 497 768
863 1319 992 203 47 505 66 700 44 876 -100 1578 -714 1784 -1561 13 -52 29
-138 36 -190 7 -52 19 -105 26 -118 18 -27 55 -29 79 -2 17 19 17 25 1 135
-124 863 -755 1567 -1599 1785 -63 16 -154 34 -203 41 -49 7 -90 13 -92 14 -2
2 15 30 36 64 99 152 77 330 -53 450 -33 29 -77 58 -110 70 -74 28 -180 27
-252 0z m236 -109 c84 -43 131 -121 131 -219 0 -194 -217 -307 -377 -197 -120
83 -140 260 -40 364 76 80 192 101 286 52z"/>
<path d="M16 1464 c-30 -30 -14 -147 36 -252 38 -81 131 -180 205 -219 128
-68 -56 -63 2302 -63 1774 0 2145 3 2187 14 175 47 326 206 363 384 15 73 14
118 -5 136 -14 14 -259 16 -2544 16 -2285 0 -2530 -2 -2544 -16z m4986 -119
c-13 -129 -160 -272 -310 -304 -76 -16 -4189 -16 -4264 0 -144 31 -263 138
-304 275 -8 26 -11 50 -8 55 3 5 1037 8 2447 7 l2442 -3 -3 -30z"/>
</g>
</svg>
