<?xml version="1.0" standalone="no"?>
<!DOCTYPE svg PUBLIC "-//W3C//DTD SVG 20010904//EN"
 "http://www.w3.org/TR/2001/REC-SVG-20010904/DTD/svg10.dtd">
<svg version="1.0" xmlns="http://www.w3.org/2000/svg"
 width="512.000000pt" height="512.000000pt" viewBox="0 0 512.000000 512.000000"
 preserveAspectRatio="xMidYMid meet">

<g transform="translate(0.000000,512.000000) scale(0.100000,-0.100000)"
fill="#000000" stroke="none">
<path d="M2370 5113 c-87 -6 -264 -34 -284 -45 -59 -30 -76 -114 -32 -161 35
-38 61 -41 193 -24 65 9 170 19 233 22 129 8 154 18 176 72 20 47 4 97 -40
124 -31 19 -107 23 -246 12z"/>
<path d="M1439 4859 c-156 -76 -311 -171 -344 -211 -37 -44 -34 -91 9 -134 52
-52 76 -48 233 46 73 44 181 103 238 130 92 43 107 53 120 84 20 46 10 90 -27
121 -47 40 -87 34 -229 -36z"/>
<path d="M3894 4679 c-11 -6 -28 -23 -37 -39 -15 -25 -17 -76 -17 -480 0 -404
2 -455 17 -480 32 -55 112 -67 160 -26 l28 24 5 348 5 348 124 -119 c394 -380
631 -846 707 -1390 22 -160 22 -450 0 -610 -101 -725 -511 -1345 -1134 -1716
-681 -405 -1543 -433 -2252 -72 -587 299 -1023 831 -1198 1458 -97 348 -114
699 -51 1045 26 145 25 162 -12 199 -48 49 -134 38 -164 -20 -43 -82 -81 -442
-72 -679 15 -377 100 -712 268 -1049 130 -262 265 -451 472 -660 699 -708
1739 -944 2682 -610 151 54 400 178 535 266 292 192 552 452 743 743 80 123
210 382 262 524 212 578 203 1243 -24 1813 -130 327 -302 591 -550 846 l-134
137 282 0 c316 0 331 3 357 67 19 43 5 93 -33 123 -25 19 -39 20 -487 19 -288
0 -469 -4 -482 -10z"/>
<path d="M2501 4354 c-52 -37 -51 -18 -51 -943 0 -578 3 -869 11 -888 11 -32
846 -873 897 -905 82 -51 185 30 157 124 -4 12 -196 212 -426 443 l-419 421 0
832 c0 896 1 879 -51 916 -13 9 -39 16 -59 16 -20 0 -46 -7 -59 -16z"/>
<path d="M610 4212 c-107 -113 -310 -423 -310 -475 0 -64 46 -107 114 -107 46
0 67 20 132 130 56 94 156 234 227 318 31 36 37 52 37 89 0 62 -40 103 -101
103 -40 0 -48 -5 -99 -58z"/>
</g>
</svg>
