<svg xmlns="http://www.w3.org/2000/svg" style="display:none">
  <symbol id="prep" viewBox="0 0 512 512">
    <g transform="translate(0,512) scale(0.1,-0.1)" fill="currentColor" stroke="none">
      <path d="M2370 5113 c-87 -6 -264 -34 -284 -45 -59 -30 -76 -114 -32 -161 35 -38 61 -41 193 -24 65 9 170 19 233 22 129 8 154 18 176 72 20 47 4 97 -40 124 -31 19 -107 23 -246 12z"/>
      <path d="M1439 4859 c-156 -76 -311 -171 -344 -211 -37 -44 -34 -91 9 -134 52 -52 76 -48 233 46 73 44 181 103 238 130 92 43 107 53 120 84 20 46 10 90 -27 121 -47 40 -87 34 -229 -36z"/>
      <path d="M3894 4679 c-11 -6 -28 -23 -37 -39 -15 -25 -17 -76 -17 -480 0 -404 2 -455 17 -480 32 -55 112 -67 160 -26 l28 24 5 348 5 348 124 -119 c394 -380 631 -846 707 -1390 22 -160 22 -450 0 -610 -101 -725 -511 -1345 -1134 -1716 -681 -405 -1543 -433 -2252 -72 -587 299 -1023 831 -1198 1458 -97 348 -114 699 -51 1045 26 145 25 162 -12 199 -48 49 -134 38 -164 -20 -43 -82 -81 -442 -72 -679 15 -377 100 -712 268 -1049 130 -262 265 -451 472 -660 699 -708 1739 -944 2682 -610 151 54 400 178 535 266 292 192 552 452 743 743 80 123 210 382 262 524 212 578 203 1243 -24 1813 -130 327 -302 591 -550 846 l-134 137 282 0 c316 0 331 3 357 67 19 43 5 93 -33 123 -25 19 -39 20 -487 19 -288 0 -469 -4 -482 -10z"/>
      <path d="M2501 4354 c-52 -37 -51 -18 -51 -943 0 -578 3 -869 11 -888 11 -32 846 -873 897 -905 82 -51 185 30 157 124 -4 12 -196 212 -426 443 l-419 421 0 832 c0 896 1 879 -51 916 -13 9 -39 16 -59 16 -20 0 -46 -7 -59 -16z"/>
      <path d="M610 4212 c-107 -113 -310 -423 -310 -475 0 -64 46 -107 114 -107 46 0 67 20 132 130 56 94 156 234 227 318 31 36 37 52 37 89 0 62 -40 103 -101 103 -40 0 -48 -5 -99 -58z"/>
    </g>
  </symbol>

  <symbol id="cook" viewBox="0 0 512 512">
    <g transform="translate(0,512) scale(0.1,-0.1)" fill="currentColor" stroke="none">
      <path d="M2171 4705 c-230 -50 -373 -219 -317 -376 l12 -36 -115 -18 c-130 -20 -387 -82 -472 -114 -80 -30 -103 -88 -54 -136 32 -33 54 -32 188 9 932 282 2198 64 2523 -435 24 -37 51 -69 60 -73 53 -20 114 18 114 72 0 73 -159 254 -313 356 -221 147 -570 270 -913 322 l-111 16 13 37 c57 158 -87 326 -322 376 -85 18 -208 18 -293 0z m261 -156 c111 -23 208 -92 208 -146 0 -11 -10 -35 -22 -53 l-23 -33 -275 0 -275 0 -22 33 c-29 42 -29 65 1 104 62 82 256 127 408 95z"/>
      <path d="M555 4455 c-14 -13 -25 -35 -25 -48 0 -24 -16 -50 -74 -121 -60 -75 -72 -167 -32 -252 13 -28 29 -55 36 -59 23 -14 70 -88 70 -111 0 -12 -21 -46 -46 -76 -60 -69 -75 -99 -81 -163 -5 -48 -3 -56 20 -79 51 -50 137 -17 137 53 0 21 14 46 50 88 59 68 86 142 76 210 -7 55 -24 88 -81 154 -58 68 -58 92 -1 162 54 67 74 103 82 155 14 90 -71 148 -131 87z"/>
      <path d="M1035 4455 c-14 -13 -25 -35 -25 -48 0 -24 -16 -50 -74 -121 -60 -75 -72 -167 -32 -252 13 -28 29 -55 36 -59 23 -14 70 -88 70 -111 0 -12 -21 -46 -46 -76 -60 -69 -75 -99 -81 -163 -5 -48 -3 -56 20 -79 51 -50 137 -17 137 53 0 21 14 46 50 88 59 68 86 142 76 210 -7 55 -24 88 -81 154 -58 68 -58 92 -1 162 54 67 74 103 82 155 14 90 -71 148 -131 87z"/>
      <path d="M540 3423 c-131 -46 -220 -168 -220 -303 0 -94 57 -208 126 -253 l34 -22 0 -750 c0 -826 0 -820 63 -939 40 -78 135 -173 213 -213 121 -64 97 -63 1092 -63 l903 0 24 25 c30 29 32 74 6 106 l-19 24 -924 5 -923 5 -61 28 c-77 36 -145 104 -181 182 l-28 60 -3 743 -2 742 1680 0 1680 0 0 -55 c0 -46 4 -60 25 -80 32 -33 78 -33 110 0 22 21 25 33 25 102 0 77 1 79 31 97 33 20 82 82 106 136 11 23 16 65 17 120 0 70 -4 94 -24 135 -31 63 -91 124 -155 155 l-50 25 -1750 2 c-1572 2 -1755 1 -1795 -14z m3546 -169 c53 -39 69 -71 69 -134 0 -63 -16 -95 -69 -134 -27 -21 -28 -21 -1744 -24 -1185 -2 -1728 0 -1754 8 -101 29 -140 168 -71 251 53 62 -70 59 1815 56 1727 -2 1727 -2 1754 -23z"/>
      <path d="M3686 2539 c-20 -16 -26 -29 -26 -59 0 -54 34 -80 106 -80 l54 0 0 -40 c0 -38 -1 -39 -37 -45 -113 -17 -254 -58 -337 -99 -300 -146 -510 -418 -572 -744 -18 -95 -18 -289 0 -384 76 -395 370 -710 762 -815 88 -23 117 -26 259 -26 141 0 172 3 257 26 388 104 679 407 759 792 26 121 26 309 0 430 -80 386 -376 694 -758 791 -52 13 -106 24 -118 24 -44 0 -55 10 -55 51 l0 39 49 0 c66 0 101 27 101 80 0 30 -6 43 -26 59 -25 20 -40 21 -209 21 -169 0 -184 -1 -209 -21z m447 -413 c163 -48 284 -123 404 -249 314 -331 314 -863 0 -1194 -119 -125 -239 -199 -404 -250 -79 -24 -104 -26 -238 -26 -134 0 -159 2 -238 26 -165 51 -285 125 -404 250 -88 93 -150 196 -194 325 -33 96 -34 100 -34 272 0 172 1 176 34 272 95 275 310 486 578 568 111 33 159 39 288 35 92 -3 141 -10 208 -29z"/>
      <path d="M3846 2059 c-37 -29 -37 -89 0 -118 15 -12 37 -21 49 -21 12 0 34 9 49 21 37 29 37 89 0 118 -15 12 -37 21 -49 21 -12 0 -34 -9 -49 -21z"/>
      <path d="M3336 1849 c-56 -44 -20 -139 54 -139 66 0 97 92 46 137 -34 28 -65 29 -100 2z"/>
      <path d="M4354 1847 c-35 -31 -37 -77 -4 -112 48 -51 130 -16 130 55 0 70 -72 103 -126 57z"/>
      <path d="M3126 1339 c-37 -29 -37 -89 0 -118 15 -12 37 -21 49 -21 12 0 34 9 49 21 37 29 37 89 0 118 -15 12 -37 21 -49 21 -12 0 -34 -9 -49 -21z"/>
      <path d="M3846 1339 c-20 -15 -26 -29 -26 -58 0 -34 10 -47 143 -179 155 -153 170 -161 221 -121 20 15 26 29 26 58 0 34 -10 47 -143 179 -155 153 -170 161 -221 121z"/>
      <path d="M4566 1339 c-37 -29 -37 -89 0 -118 15 -12 37 -21 49 -21 12 0 34 9 49 21 37 29 37 89 0 118 -15 12 -37 21 -49 21 -12 0 -34 -9 -49 -21z"/>
      <path d="M3336 829 c-37 -29 -37 -89 0 -118 35 -27 66 -26 100 2 35 31 37 77 4 112 -29 31 -68 32 -104 4z"/>
      <path d="M4350 825 c-33 -35 -31 -81 4 -112 34 -28 65 -29 100 -2 20 16 26 29 26 59 0 71 -82 106 -130 55z"/>
      <path d="M3846 619 c-37 -29 -37 -89 0 -118 15 -12 37 -21 49 -21 12 0 34 9 49 21 37 29 37 89 0 118 -15 12 -37 21 -49 21 -12 0 -34 -9 -49 -21z"/>
      <path d="M2973 2165 c-95 -98 -173 -210 -173 -247 0 -54 61 -92 115 -72 9 4 34 33 56 65 22 32 73 95 114 139 60 63 75 86 75 110 0 42 -39 80 -82 80 -28 0 -44 -12 -105 -75z"/>
    </g>
  </symbol>

  <symbol id="kbru-100" viewBox="0 0 512 512">
    <g transform="translate(0,512) scale(0.1,-0.1)" fill="currentColor" stroke="none">
      <path d="M1919 3734 c-290 -52 -508 -218 -640 -488 l-39 -80 0 190 c0 106 -5 207 -11 229 -15 55 -83 119 -142 133 -29 8 -151 12 -340 12 -330 0 -370 -6 -424 -62 -59 -61 -63 -83 -63 -340 0 -216 1 -235 21 -276 25 -50 85 -99 135 -108 l34 -6 0 -675 c0 -481 3 -687 12 -721 8 -31 25 -59 53 -88 60 -60 101 -67 365 -62 233 3 247 6 302 65 52 55 58 85 58 305 l1 203 23 -55 c119 -283 350 -467 663 -526 129 -24 344 -15 472 20 266 74 476 262 581 522 l22 53 59 -117 c122 -243 289 -383 544 -458 121 -35 346 -45 478 -20 411 78 669 364 752 836 22 124 30 406 16 542 -40 396 -181 670 -431 837 -149 100 -331 151 -535 151 -394 0 -701 -194 -850 -535 l-33 -77 -40 85 c-134 286 -358 460 -659 512 -105 18 -282 18 -384 -1z m429 -213 c278 -81 449 -297 517 -653 23 -120 30 -359 15 -503 -16 -164 -51 -290 -112 -415 -90 -182 -235 -304 -423 -355 -89 -25 -292 -31 -390 -12 -366 70 -564 342 -605 832 -30 365 49 712 205 894 104 122 216 188 382 225 98 22 313 15 411 -13z m1772 -1 c351 -101 540 -436 540 -956 0 -254 -37 -441 -121 -613 -89 -183 -235 -304 -429 -358 -49 -13 -102 -18 -220 -18 -132 0 -167 3 -235 23 -123 36 -190 76 -285 172 -71 70 -94 101 -132 180 -87 175 -118 339 -118 617 0 362 72 599 237 773 99 105 198 161 349 194 100 23 313 15 414 -14z m-3082 -957 l-3 -968 -190 0 -190 0 -3 773 -2 772 -95 0 -95 0 0 195 0 195 290 0 290 0 -2 -967z"/>
      <path d="M2003 3176 c-130 -42 -218 -156 -260 -336 -26 -109 -26 -452 0 -563 39 -166 126 -282 243 -326 85 -33 216 -27 296 12 101 50 169 152 210 315 19 75 22 114 22 282 0 168 -3 207 -22 282 -40 163 -113 266 -221 317 -67 31 -199 39 -268 17z m222 -229 c65 -65 94 -184 95 -388 0 -202 -46 -368 -114 -410 -45 -28 -133 -26 -176 4 -73 49 -110 185 -110 407 0 224 36 358 110 408 25 17 47 22 93 22 57 0 62 -2 102 -43z"/>
      <path d="M3773 3176 c-130 -42 -218 -156 -260 -336 -26 -109 -26 -452 0 -563 39 -166 126 -283 245 -327 83 -32 215 -25 295 13 99 49 165 145 209 305 19 68 22 104 22 292 0 188 -3 225 -22 291 -43 156 -110 252 -214 305 -44 23 -68 28 -143 31 -57 2 -105 -2 -132 -11z m217 -222 c69 -62 100 -189 100 -401 -1 -208 -44 -361 -114 -404 -42 -26 -130 -26 -173 1 -37 22 -74 89 -94 170 -19 74 -19 392 -1 476 31 138 84 194 183 194 53 0 63 -3 99 -36z"/>
    </g>
  </symbol>

  <symbol id="kbru-dish" viewBox="0 0 512 512">
    <g transform="translate(0,512) scale(0.1,-0.1)" fill="currentColor" stroke="none">
      <path d="M2433 4169 c-30 -11 -77 -43 -107 -70 -131 -120 -153 -298 -54 -450 21 -34 38 -62 36 -63 -2 -2 -41 -8 -88 -15 -104 -15 -255 -52 -375 -92 -126 -42 -370 -164 -495 -247 -513 -341 -860 -900 -941 -1515 -10 -80 -9 -90 7 -108 23 -26 60 -24 78 3 8 13 17 50 21 83 27 240 122 529 246 750 281 497 768 863 1319 992 203 47 505 66 700 44 876 -100 1578 -714 1784 -1561 13 -52 29 -138 36 -190 7 -52 19 -105 26 -118 18 -27 55 -29 79 -2 17 19 17 25 1 135 -124 863 -755 1567 -1599 1785 -63 16 -154 34 -203 41 -49 7 -90 13 -92 14 -2 2 15 30 36 64 99 152 77 330 -53 450 -33 29 -77 58 -110 70 -74 28 -180 27 -252 0z m236 -109 c84 -43 131 -121 131 -219 0 -194 -217 -307 -377 -197 -120 83 -140 260 -40 364 76 80 192 101 286 52z"/>
      <path d="M16 1464 c-30 -30 -14 -147 36 -252 38 -81 131 -180 205 -219 128 -68 -56 -63 2302 -63 1774 0 2145 3 2187 14 175 47 326 206 363 384 15 73 14 118 -5 136 -14 14 -259 16 -2544 16 -2285 0 -2530 -2 -2544 -16z m4986 -119 c-13 -129 -160 -272 -310 -304 -76 -16 -4189 -16 -4264 0 -144 31 -263 138 -304 275 -8 26 -11 50 -8 55 3 5 1037 8 2447 7 l2442 -3 -3 -30z"/>
    </g>
  </symbol>

  <symbol id="ingredients" viewBox="0 0 128 128">
    <g transform="translate(0,128) scale(0.1,-0.1)" fill="currentColor" stroke="none">
      <path d="M707 1262 c-25 -27 -23 -123 2 -146 19 -17 19 -18 -4 -69 -12 -29 -30 -77 -40 -108 -18 -56 -18 -56 -46 -46 -23 9 -32 8 -48 -7 -19 -17 -22 -17 -78 10 -47 23 -71 29 -123 28 -131 -1 -224 -84 -254 -225 -5 -21 -13 -28 -41 -33 -59 -11 -75 -36 -75 -112 0 -77 9 -98 50 -112 27 -10 30 -15 30 -54 0 -58 77 -315 107 -355 l24 -33 428 0 428 0 21 23 c28 29 112 303 112 364 0 40 3 45 30 55 17 5 35 18 40 28 13 24 13 136 0 160 -11 21 -60 40 -104 40 l-32 0 -12 85 c-12 78 -66 255 -98 316 -12 24 -11 28 6 44 15 14 20 31 20 75 0 87 -7 90 -182 90 -128 0 -147 -2 -161 -18z m293 -72 l0 -40 -130 0 -130 0 0 40 0 40 130 0 130 0 0 -40z m-15 -162 c40 -85 79 -218 89 -300 l7 -58 -32 0 c-24 0 -81 27 -194 91 -88 50 -161 92 -162 94 -6 4 45 143 71 193 l26 52 81 0 80 0 20 34 -72z m-518 -175 c18 -8 33 -19 33 -23 0 -4 -36 -42 -80 -84 l-80 -76 -89 0 -89 0 7 33 c32 140 171 211 298 150z m289 -94 c79 -45 144 -83 144 -85 0 -2 -109 -4 -242 -4 l-243 1 90 84 c50 47 94 85 98 85 5 0 73 -36 153 -81z m469 -209 l0 -55 -585 0 -585 0 -3 44 c-6 77 -57 71 590 69 l583 -3 0 -55z m-915 -280 l5 -165 50 -3 c72 -5 75 2 75 186 0 153 0 153 23 150 22 -3 22 -6 27 -168 l5 -165 55 0 55 0 5 165 5 165 25 0 25 0 5 -165 5 -165 55 0 55 0 5 165 c5 162 5 165 28 168 22 3 22 3 22 -150 0 -184 3 -191 75 -186 l50 3 5 165 5 165 87 3 88 3 0 -42 c0 -39 -69 -290 -91 -331 -9 -17 -38 -18 -419 -18 -381 0 -410 1 -419 18 -22 41 -91 292 -91 331 l0 42 88 -3 87 -3 5 -165z m70 25 c0 -90 -4 -145 -10 -145 -6 0 -10 55 -10 145 0 90 4 145 10 145 6 0 10 -55 10 -145z m180 0 c0 -90 -4 -145 -10 -145 -6 0 -10 55 -10 145 0 90 4 145 10 145 6 0 10 -55 10 -145z m180 0 c0 -90 -4 -145 -10 -145 -6 0 -10 55 -10 145 0 90 4 145 10 145 6 0 10 -55 10 -145z m180 0 c0 -90 -4 -145 -10 -145 -6 0 -10 55 -10 145 0 90 4 145 10 145 6 0 10 -55 10 -145z"/>
    </g>
  </symbol>
</svg>
